<?xml version="1.0" standalone="no"?>
<!DOCTYPE svg PUBLIC "-//W3C//DTD SVG 20010904//EN"
 "http://www.w3.org/TR/2001/REC-SVG-20010904/DTD/svg10.dtd">
<svg version="1.0" xmlns="http://www.w3.org/2000/svg"
 width="1024.000000pt" height="1024.000000pt" viewBox="0 0 1024.000000 1024.000000"
 preserveAspectRatio="xMidYMid meet">

  <rect width="100%" height="100%" fill="white" rx="512" ry="512" />


<g transform="translate(0.000000,1024.000000) scale(0.100000,-0.100000)"
fill="#000000" stroke="none">
<path d="M3769 9648 c-19 -35 -5 -189 29 -323 58 -223 106 -350 298 -783 212
-476 337 -799 433 -1114 39 -129 101 -360 101 -378 0 -5 -60 51 -132 124 -322
322 -777 601 -1375 841 -96 39 -118 42 -131 18 -23 -40 5 -60 248 -183 481
-243 834 -483 1087 -738 210 -212 323 -398 397 -654 75 -258 93 -748 50 -1333
-12 -174 -24 -283 -52 -500 l-7 -50 -43 120 c-24 66 -81 197 -127 290 -187
380 -409 656 -805 1002 -186 162 -263 245 -355 383 -104 155 -185 327 -282
600 -49 139 -56 150 -89 150 -37 0 -48 -31 -35 -103 19 -106 100 -361 158
-496 4 -8 -74 59 -173 149 -290 264 -467 407 -659 533 -277 181 -539 297 -850
377 -165 43 -225 41 -225 -8 0 -32 36 -53 149 -88 305 -95 630 -252 871 -422
133 -94 378 -299 368 -307 -2 -1 -41 4 -88 11 -405 62 -809 -93 -1177 -451
-106 -103 -119 -127 -87 -160 24 -23 50 -11 129 63 240 222 513 366 764 402
112 17 333 7 426 -18 197 -54 338 -141 625 -388 63 -55 185 -158 270 -229 349
-292 572 -535 745 -810 70 -111 171 -318 220 -449 77 -209 145 -545 145 -720
l0 -80 -53 90 c-272 461 -564 736 -1002 945 -353 168 -671 247 -1293 319 -251
29 -282 27 -282 -22 0 -31 50 -45 285 -82 389 -62 589 -107 775 -173 l74 -27
-64 -18 c-396 -111 -695 -328 -955 -692 -54 -77 -69 -117 -51 -142 25 -33 61
-9 160 110 283 337 588 533 924 591 223 39 330 11 581 -152 405 -262 707 -683
785 -1093 35 -183 32 -283 -24 -780 -32 -285 -54 -537 -70 -805 -22 -377 -42
-540 -80 -650 -11 -32 -20 -68 -20 -80 0 -49 -2 -48 518 -41 452 7 488 9 506
25 29 30 12 76 -54 146 -180 189 -292 479 -363 935 -27 179 -29 532 -4 725 70
524 214 922 479 1317 144 215 376 461 558 590 258 184 541 267 860 255 349
-14 637 -128 1023 -407 40 -29 51 -32 75 -24 31 11 42 55 20 81 -26 33 -214
166 -331 235 -208 123 -401 197 -612 233 -188 32 -473 19 -639 -30 -27 -8 -51
-13 -53 -11 -2 2 36 38 84 81 343 302 697 486 1091 564 78 16 149 34 157 41
27 22 18 50 -21 66 -33 14 -47 14 -143 -1 -425 -65 -754 -211 -1101 -489 -110
-89 -583 -528 -780 -725 -251 -252 -433 -497 -622 -841 -65 -118 -69 -122 -64
-80 3 25 8 83 11 130 39 541 212 1043 562 1630 393 658 976 1126 1588 1276
268 65 570 72 833 18 352 -72 793 -278 1132 -529 112 -83 144 -97 168 -73 42
42 -27 111 -288 285 -706 470 -1325 609 -1955 439 -49 -13 -92 -23 -93 -21 -2
2 85 93 195 203 219 220 341 322 543 453 169 110 192 128 188 147 -6 28 -33
37 -75 24 -50 -15 -233 -117 -347 -194 -188 -126 -325 -242 -600 -506 -199
-192 -286 -266 -506 -429 -198 -146 -273 -208 -377 -307 -40 -38 -73 -66 -73
-63 0 3 9 26 20 51 38 90 121 326 161 458 61 203 111 411 209 866 50 228 117
521 151 651 84 323 83 317 76 335 -11 27 -46 19 -67 -16 -46 -75 -179 -514
-335 -1103 -158 -597 -213 -771 -350 -1094 -89 -212 -189 -414 -352 -711 -82
-151 -178 -329 -213 -395 -34 -66 -63 -121 -64 -122 0 -1 -1 141 -2 315 -1
512 -48 934 -154 1399 -49 214 -79 320 -185 643 -97 296 -110 368 -102 554 15
335 138 613 417 941 101 118 116 149 85 175 -8 7 -25 10 -38 6 -26 -6 -212
-190 -288 -286 -158 -197 -270 -435 -315 -669 l-17 -94 -155 309 c-238 476
-304 632 -373 888 -22 82 -45 156 -51 163 -16 20 -46 16 -59 -9z"/>
</g>
</svg>
